<?xml version="1.0" encoding="iso-8859-1"?>
<!-- Generator: Adobe Illustrator 16.0.0, SVG Export Plug-In . SVG Version: 6.00 Build 0)  -->
<!DOCTYPE svg PUBLIC "-//W3C//DTD SVG 1.1//EN" "http://www.w3.org/Graphics/SVG/1.1/DTD/svg11.dtd">
<svg xmlns="http://www.w3.org/2000/svg" xmlns:xlink="http://www.w3.org/1999/xlink" version="1.1" id="Capa_1" x="0px" y="0px" width="512px" height="512px" viewBox="0 0 749.086 749.086" style="enable-background:new 0 0 749.086 749.086;" xml:space="preserve">
<g>
	<g>
		<g>
			<g>
				<path d="M411.195,140.735c1.805-0.877,3.634-1.682,5.438-2.438l0.658-0.268c1.658-0.683,3.315-1.292,4.999-1.877v-8.949      c0-5.852,2.438-11.216,6.313-15.068l-0.023-0.024c3.877-3.876,9.24-6.291,15.117-6.291h29.039      c5.804,0,11.168,2.438,15.045,6.291l0.023,0.024l0.024-0.024c3.853,3.853,6.29,9.241,6.29,15.093v8.924      c1.901,0.658,3.778,1.39,5.633,2.146l0.39,0.171c1.707,0.707,3.391,1.463,5.072,2.268l6.313-6.315      c4.171-4.169,9.655-6.242,15.117-6.242s10.997,2.097,15.117,6.242l0.609,0.658l19.872,19.896l0.023-0.024      c4.146,4.146,6.242,9.655,6.242,15.117c0,5.461-2.098,10.996-6.242,15.117l-6.314,6.315c0.878,1.804,1.707,3.633,2.438,5.437      c0.756,1.829,1.487,3.73,2.146,5.632h8.947c5.854,0,11.218,2.438,15.068,6.315l0.024-0.024      c3.877,3.876,6.291,9.241,6.291,15.117v29.04c0,5.803-2.438,11.167-6.291,15.044l-0.024,0.024l0.024,0.024      c-3.854,3.853-9.24,6.291-15.094,6.291h-8.947c-0.658,1.926-1.391,3.804-2.146,5.632c-0.756,1.828-1.585,3.682-2.463,5.486      l6.267,6.267l0.024,0.024l0.024-0.024c4.169,4.169,6.241,9.631,6.241,15.117c0,5.438-2.098,10.972-6.241,15.117l-20.53,20.53      l-1.072,0.951c-4.022,3.487-9.07,5.291-14.045,5.291c-5.413,0-10.898-2.097-15.068-6.242l-0.023-0.024l-0.024,0.024l-6.29-6.315      c-1.805,0.853-3.633,1.682-5.438,2.414c-1.829,0.756-3.706,1.487-5.608,2.146v8.948c0,5.876-2.413,11.265-6.266,15.117      c-3.854,3.852-9.217,6.266-15.117,6.266h-29.04c-5.9,0-11.265-2.414-15.117-6.266c-3.853-3.853-6.266-9.217-6.266-15.117v-8.948      c-1.902-0.659-3.779-1.39-5.633-2.146l-0.391-0.17c-1.707-0.731-3.414-1.487-5.097-2.292l-6.29,6.291l-0.049,0.049      c-4.17,4.145-9.655,6.242-15.068,6.242s-10.898-2.097-15.067-6.242l-0.024-0.024l-0.024,0.024l-20.529-20.53      c-4.169-4.169-6.242-9.68-6.242-15.117c0-5.486,2.097-10.972,6.242-15.117l6.315-6.315c-0.877-1.805-1.682-3.609-2.438-5.438      h-0.024c-0.756-1.829-1.487-3.73-2.146-5.632h-8.924c-5.876,0-11.265-2.414-15.117-6.266c-3.852-3.853-6.266-9.217-6.266-15.117      v-29.015c0-5.852,2.438-11.216,6.315-15.068l-0.024-0.024c3.853-3.853,9.217-6.267,15.117-6.267h8.924      c0.658-1.902,1.39-3.779,2.146-5.608l0.268-0.634c0.683-1.634,1.414-3.243,2.17-4.852l-6.291-6.315l-0.024-0.024l-0.024,0.024      c-4.145-4.146-6.217-9.656-6.217-15.117c0-5.462,2.072-10.972,6.217-15.117l20.53-20.53c4.145-4.121,9.655-6.242,15.117-6.242      s10.947,2.072,15.117,6.242L411.195,140.735L411.195,140.735z M425.581,159.852c-3.413,1.414-6.778,3.072-10.045,4.95      c-4.535,3.048-10.803,2.609-14.825-1.415l-10.996-10.997l-17.677,17.678l10.972,10.972l-0.023,0.024      c3.682,3.658,4.584,9.485,1.827,14.167c-1.9,3.243-3.633,6.632-5.07,10.045l-0.244,0.634c-1.414,3.39-2.608,6.852-3.511,10.241      c-0.879,5.583-5.73,9.851-11.558,9.851h-15.483v24.968h15.532v0.049c5.193,0,9.972,3.487,11.289,8.777      c0.928,3.707,2.22,7.486,3.779,11.265h-0.024l0.024,0.048c1.366,3.292,3.023,6.632,4.901,9.899      c3.146,4.56,2.706,10.875-1.365,14.922l-10.973,10.972l17.678,17.678l10.582-10.582c3.657-4.023,9.753-5.047,14.604-2.195      c3.292,1.926,6.657,3.633,9.997,5.047l0.658,0.244c3.414,1.415,6.852,2.609,10.241,3.511c5.583,0.878,9.851,5.73,9.851,11.557      v15.556h24.967v-15.556h0.05c0-5.193,3.512-9.972,8.777-11.289c3.706-0.951,7.485-2.219,11.24-3.779      c3.413-1.414,6.778-3.072,10.046-4.95c4.561-3.047,10.801-2.609,14.824,1.415l10.972,10.972l17.679-17.678l-10.582-10.558      c-4.023-3.657-5.071-9.753-2.194-14.605c2.022-3.438,3.804-7.022,5.314-10.655c1.414-3.414,2.608-6.876,3.535-10.265      c0.878-5.583,5.73-9.851,11.559-9.851h15.556V226h-15.556v-0.073c-5.193,0-9.974-3.486-11.289-8.777      c-0.927-3.707-2.219-7.486-3.779-11.265c-1.39-3.389-3.022-6.681-4.779-9.777c-3.267-4.559-2.853-10.996,1.244-15.068      l10.996-10.996l-17.678-17.653l-10.996,10.997l-0.024-0.024c-3.682,3.682-9.51,4.56-14.189,1.804      c-3.292-1.926-6.657-3.633-9.997-5.047l-0.658-0.244c-3.414-1.415-6.852-2.609-10.241-3.511      c-5.583-0.878-9.851-5.73-9.851-11.557v-15.581h-24.967v15.532h-0.051c0,5.193-3.486,9.923-8.729,11.289      c-3.755,0.975-7.412,2.194-10.996,3.633L425.581,159.852L425.581,159.852z M533.669,296.296l-0.366-0.366L533.669,296.296      L533.669,296.296z M540.618,343.476l-14.045,0.269C530.768,346.768,536.521,346.67,540.618,343.476L540.618,343.476z       M400.37,313.973l0.364-0.366L400.37,313.973z" fill="#FFFFFF"/>
			</g>
			<path d="M458.181,178.382c16.58,0,31.624,6.754,42.476,17.604c10.85,10.85,17.604,25.894,17.604,42.499     c0,16.531-6.729,31.575-17.628,42.45l0.024,0.024c-10.852,10.85-25.87,17.604-42.476,17.604     c-16.604,0-31.647-6.754-42.499-17.604c-10.85-10.85-17.604-25.894-17.604-42.474c0-16.604,6.754-31.648,17.604-42.499     l0.731-0.659C427.239,184.843,441.99,178.382,458.181,178.382L458.181,178.382z M484.1,212.542     c-6.607-6.608-15.8-10.729-25.919-10.729c-9.898,0-18.872,3.926-25.479,10.265l-0.464,0.488     c-6.633,6.632-10.753,15.824-10.753,25.943c0,10.119,4.12,19.287,10.753,25.918c6.607,6.608,15.823,10.753,25.942,10.753     s19.286-4.121,25.919-10.753l0.024,0.024l0.023-0.024c6.583-6.583,10.68-15.775,10.68-25.918     C494.852,228.342,490.731,219.149,484.1,212.542z" fill="#FFFFFF"/>
			<path d="M412.951,534.123c4.56-4.561,11.996-4.561,16.556,0c4.56,4.559,4.56,11.996,0,16.555     c-31.673,31.674-69.612,57.25-111.769,74.732l-0.683,0.268c-40.426,16.654-84.705,25.847-131.007,25.847     c-6.461,0-11.704-5.242-11.704-11.703s5.242-11.703,11.704-11.703c43.376,0,84.632-8.56,122.229-24.041l0.487-0.222     C347.996,587.594,383.326,563.746,412.951,534.123z" fill="#FFFFFF"/>
			<path d="M186.072,628.092c6.461,0,11.704,5.242,11.704,11.705c0,6.461-5.242,11.703-11.704,11.703h-30.234     c-11.484,0-21.968-4.707-29.576-12.314l-0.049-0.049c-7.607-7.604-12.313-18.092-12.313-29.574v-23.407     c0-11.509,4.706-21.97,12.313-29.576l0.049-0.049c7.607-7.607,18.116-12.313,29.576-12.313h30.234     c6.461,0,11.704,5.242,11.704,11.703s-5.242,11.703-11.704,11.703h-30.234c-5.096,0-9.753,2.074-13.069,5.414l-0.049,0.049     c-3.34,3.316-5.413,7.973-5.413,13.068v23.408c0,5.096,2.072,9.752,5.413,13.067l0.049,0.049     c3.316,3.341,7.973,5.412,13.069,5.412L186.072,628.092L186.072,628.092z" fill="#FFFFFF"/>
			<path d="M125.604,537.389c-6.461,0-11.704-5.242-11.704-11.703s5.242-11.702,11.704-11.702c11.508,0,21.968,4.729,29.576,12.288     l0.049,0.05c7.583,7.631,12.313,18.092,12.313,29.6c0,6.461-5.267,11.703-11.704,11.703c-6.461,0-11.704-5.242-11.704-11.703     c0-5.096-2.072-9.729-5.388-13.068l-0.049-0.049C135.333,539.463,130.7,537.389,125.604,537.389z" fill="#FFFFFF"/>
			<path d="M80.253,461.805c-6.462,0-11.704-5.242-11.704-11.705c0-6.461,5.242-11.702,11.704-11.702     c7.607,0,15.02,1.561,21.798,4.364h0.049l0,0c6.998,2.926,13.313,7.144,18.531,12.361l0.707,0.781     c4.901,5.096,8.875,11.117,11.655,17.772c2.804,6.754,4.364,14.144,4.364,21.822v30.234c0,6.461-5.242,11.702-11.704,11.702     c-6.461,0-11.703-5.241-11.703-11.702V495.5c0-4.607-0.902-8.973-2.512-12.85c-1.61-3.877-3.95-7.412-6.803-10.41l-0.561-0.513     c-3.146-3.146-6.876-5.682-10.923-7.364v-0.023C89.25,462.705,84.885,461.805,80.253,461.805z" fill="#FFFFFF"/>
			<path d="M89.762,456.854c-3.73,5.242-11.021,6.486-16.263,2.757c-5.242-3.73-6.486-11.021-2.755-16.265l18.896-26.455     l18.896-26.43l18.896-26.455c3.73-5.242,11.021-6.486,16.263-2.755c5.242,3.73,6.485,11.021,2.755,16.263l-18.896,26.455     l-18.896,26.455L89.762,456.854z" fill="#FFFFFF"/>
			<path d="M144.33,226.806c-1.39,6.315-7.656,10.314-13.947,8.924c-6.315-1.39-10.314-7.631-8.924-13.947     c5.778-26.26,15.312-51.422,28.137-74.805c12.801-23.383,28.991-44.961,48.082-64.077l0.049-0.049     c26.577-26.552,57.787-47.278,91.751-61.346C323.492,7.437,360.163,0,397.712,0s74.245,7.437,108.21,21.505     c33.965,14.068,65.174,34.794,91.751,61.346l0.024,0.024l0.023-0.024c6.12,6.145,12.216,12.874,18.214,20.14     c5.876,7.144,11.362,14.434,16.312,21.749c21.236,31.429,35.695,66.613,42.913,103.211c7.217,36.574,7.241,74.659-0.365,111.916     c-5.535,27.089-15.021,53.031-27.991,77.049c-13.045,24.188-29.576,46.449-49.082,65.979c-4.56,4.562-11.996,4.562-16.556,0     c-4.561-4.559-4.561-11.995,0-16.555c18.019-18.02,33.209-38.428,45.083-60.469c11.897-22.066,20.628-45.888,25.675-70.661     c6.974-34.111,6.949-69.124,0.292-102.772c-6.632-33.526-19.871-65.76-39.354-94.604c-4.778-7.071-9.776-13.776-14.922-20.018     c-5.022-6.12-10.654-12.264-16.774-18.384l0.023-0.024c-24.432-24.431-53.057-43.45-84.145-56.324     c-31.038-12.874-64.735-19.676-99.334-19.676c-34.599,0-68.295,6.803-99.358,19.652s-59.688,31.892-84.12,56.299l-0.048,0.049     c-17.458,17.482-32.332,37.33-44.108,58.811C158.374,179.577,149.645,202.667,144.33,226.806z" fill="#FFFFFF"/>
			<path d="M203.043,332.211c-5.925,2.487-12.776-0.292-15.263-6.217c-2.487-5.925,0.292-12.776,6.217-15.264     c6.193-2.609,12.752-4.657,19.506-6.022c6.73-1.341,13.557-2.072,20.311-2.072c6.778,0,13.605,0.731,20.311,2.072     c6.754,1.366,13.313,3.414,19.506,6.022c5.925,2.487,8.729,9.339,6.217,15.264c-2.487,5.925-9.338,8.705-15.263,6.217     c-4.779-2.023-9.826-3.584-15.02-4.657c-4.925-0.976-10.192-1.512-15.751-1.512s-10.826,0.536-15.751,1.512     C212.869,328.627,207.821,330.188,203.043,332.211z" fill="#FFFFFF"/>
			<path d="M581.166,466.34c4.56-4.561,11.996-4.561,16.556,0c4.561,4.56,4.561,11.996,0,16.555     c-3.194,3.195-6.071,6.218-8.606,8.998c-2.805,3.097-5.583,6.267-8.218,9.484l-0.463,0.512c-2.463,3-4.9,6.168-7.313,9.363     c-2.438,3.242-4.854,6.656-7.169,10.094v0.025v0.023c-2.438,3.633-4.73,7.168-6.827,10.581l-0.391,0.609     c-1.828,3.072-3.804,6.486-5.827,10.217l-0.342,0.609c-1.779,3.291-3.607,6.899-5.438,10.703l-0.27,0.514     c-1.755,3.705-3.438,7.363-4.925,10.922l-0.023,0.049l0.023,0.025c-1.561,3.656-3.121,7.631-4.657,11.801l-0.171,0.439     c-1.364,3.754-2.682,7.68-3.925,11.653l-0.146,0.414c-1.122,3.707-2.292,7.705-3.365,12.021l-0.292,0.975     c-0.927,3.658-1.805,7.511-2.634,11.533c-0.78,3.828-1.536,8.144-2.269,12.85c-0.707,4.683-1.292,9.07-1.683,12.972v0.049v0.074     l-0.024,0.219c-0.438,4.34-0.779,8.68-0.975,12.898v0.049v0.049v0.219c-0.171,3.806-0.27,8.217-0.27,13.119     c0,5.021,0.099,9.533,0.293,13.41c0.194,4.34,0.562,8.752,0.999,13.215c0.415,3.975,0.977,8.338,1.707,13.045     c0.684,4.633,1.463,8.924,2.22,12.678h0.023l1.707,7.853v0.098l1.854,7.314c1.561,6.242-2.243,12.604-8.511,14.166     c-6.24,1.561-12.604-2.242-14.166-8.51l-1.804-7.095l-0.269-1.024l-1.707-7.851h0.023l-0.023-0.146     c-1.049-5.023-1.877-9.705-2.535-13.996c-0.658-4.269-1.27-9.021-1.78-14.144c-0.463-4.704-0.854-9.557-1.097-14.481     c-0.27-5.365-0.392-10.191-0.392-14.508c0-4.365,0.146-9.217,0.392-14.558c0.243-4.926,0.634-9.752,1.097-14.434     c0.512-5.193,1.122-9.875,1.756-14.117c0.658-4.315,1.513-9.021,2.535-14.045c0.854-4.121,1.829-8.387,2.927-12.729l0.17-0.854     c1.05-4.119,2.342-8.533,3.73-13.141l0.146-0.488c1.269-4.146,2.707-8.314,4.243-12.508l0.22-0.658     c1.512-4.17,3.242-8.486,5.119-12.898h0.024c1.731-4.096,3.536-8.047,5.34-11.85l0.293-0.658     c1.78-3.682,3.779-7.584,5.949-11.631l0.293-0.609c1.877-3.463,4.047-7.192,6.412-11.094l0.463-0.83     c2.463-4.047,4.926-7.899,7.364-11.508h0.023c2.486-3.682,5.146-7.412,7.875-11.07c2.536-3.389,5.219-6.852,7.998-10.239     l0.438-0.562c2.877-3.486,5.899-6.949,8.947-10.313C575.095,472.557,578.24,469.266,581.166,466.34z" fill="#FFFFFF"/>
			<path d="M287.309,666.91c0-6.463,5.242-11.705,11.703-11.705s11.704,5.242,11.704,11.705c0,3.803-1.902,14.02-4.121,25.893     c-2.097,11.191-4.535,24.041-5.657,32.82h157.609c6.461,0,11.703,5.242,11.703,11.703s-5.242,11.703-11.703,11.703H289.82     c-8.924,0-12.898-5.828-12.898-15.75h0.049c0-9.267,3.657-28.674,6.681-44.791C285.602,678.004,287.309,668.957,287.309,666.91z" fill="#FFFFFF"/>
			<path d="M124.092,231.292c-3.853-5.145-2.804-12.459,2.34-16.312c5.145-3.852,12.459-2.804,16.336,2.341     c8.924,11.923,15.8,25.139,20.408,39.085c4.681,14.069,7.095,28.771,7.095,43.596c0,13.703-2.048,27.333-6.047,40.426     c-3.999,13.069-9.899,25.504-17.58,36.867c-3.609,5.34-10.875,6.754-16.239,3.146c-5.34-3.609-6.754-10.875-3.146-16.239     c6.437-9.558,11.387-19.872,14.629-30.551c3.268-10.704,4.95-22.042,4.95-33.647c0-12.533-1.975-24.773-5.778-36.281     C137.235,252.188,131.505,241.216,124.092,231.292z" fill="#FFFFFF"/>
		</g>
	</g>
</g>
<g>
</g>
<g>
</g>
<g>
</g>
<g>
</g>
<g>
</g>
<g>
</g>
<g>
</g>
<g>
</g>
<g>
</g>
<g>
</g>
<g>
</g>
<g>
</g>
<g>
</g>
<g>
</g>
<g>
</g>
</svg>
