<?xml version="1.0" encoding="utf-8"?>
<!-- Generator: Adobe Illustrator 16.0.0, SVG Export Plug-In . SVG Version: 6.00 Build 0)  -->
<!DOCTYPE svg PUBLIC "-//W3C//DTD SVG 1.1//EN" "http://www.w3.org/Graphics/SVG/1.1/DTD/svg11.dtd" [
	<!ENTITY ns_flows "http://ns.adobe.com/Flows/1.0/">
	<!ENTITY ns_extend "http://ns.adobe.com/Extensibility/1.0/">
	<!ENTITY ns_ai "http://ns.adobe.com/AdobeIllustrator/10.0/">
	<!ENTITY ns_graphs "http://ns.adobe.com/Graphs/1.0/">
]>
<svg version="1.1" id="Layer_1" xmlns:x="&ns_extend;" xmlns:i="&ns_ai;" xmlns:graph="&ns_graphs;"
	 xmlns="http://www.w3.org/2000/svg" xmlns:xlink="http://www.w3.org/1999/xlink" xmlns:a="http://ns.adobe.com/AdobeSVGViewerExtensions/3.0/"
	 x="0px" y="0px" width="502.5px" height="390px" viewBox="0 0 502.5 390" enable-background="new 0 0 502.5 390"
	 xml:space="preserve">
<defs>
    <filter id="shadow">
        <feOffset result="offOut" in="SourceAlpha" dx="0" dy="0"/>
        <feColorMatrix in="offOut" result ="matrixOut" type="matrix"                           
                         values="0 0 0 0 1
                                 0 0 0 0 1
                                 0 0 0 0 1 
                                 0 0 0 1 0" />
        <feGaussianBlur result="blurOut" in="matrixOut" stdDeviation="4"/>
        <feBlend in="SourceGraphic" in2="blurOut" mode="normal"/>
    </filter>
  </defs>
<g>
	<path fill-rule="evenodd" clip-rule="evenodd" fill="#FFFFFF" d="M469.945,27c-0.056,29.822-0.122,59.644-0.162,89.466
		c-0.023,17.328-0.175,34.66,0.109,51.984c0.073,4.466-1.162,5.469-5.521,5.464c-115.136-0.126-230.271-0.111-345.406-0.092
		c-29.989,0.005-59.978,0.104-89.966,0.159c0-47.287,0.048-94.574-0.088-141.861c-0.011-3.898,0.393-5.263,4.958-5.258
		C179.229,27.029,324.587,27,469.945,27z M248.915,166.148c69.303,0,138.605-0.03,207.908,0.08c3.905,0.006,5.421-0.623,5.4-5.051
		c-0.188-40.481-0.166-80.965-0.023-121.446c0.014-3.938-1.062-4.986-4.991-4.983c-138.438,0.1-276.877,0.104-415.316-0.013
		c-4.289-0.004-5.164,1.311-5.149,5.339c0.146,40.148,0.168,80.298-0.021,120.446c-0.022,4.619,1.262,5.737,5.784,5.728
		C111.31,166.104,180.112,166.148,248.915,166.148z" filter="url(#shadow)" />
	<path fill-rule="evenodd" clip-rule="evenodd" fill="#FFFFFF" d="M29,218.977c2.329,0.055,4.659,0.16,6.988,0.16
		c142.455,0.008,284.909,0.001,427.364,0.023c7.276,0.001,6.404-0.961,6.41,6.327c0.03,42.153-0.077,84.308,0.138,126.46
		c0.024,4.901-1.293,5.958-6.048,5.953c-142.955-0.135-285.909-0.11-428.864-0.103c-1.996,0-3.992,0.105-5.988,0.161
		C29,311.632,29,265.304,29,218.977z M249.254,350.126c69.137,0,138.271-0.038,207.407,0.094c4.253,0.009,5.596-0.847,5.57-5.403
		c-0.209-37.482-0.178-74.967-0.033-112.449c0.016-4.112-0.646-5.68-5.329-5.675c-138.271,0.142-276.543,0.142-414.814-0.001
		c-4.719-0.005-5.32,1.624-5.305,5.697c0.139,37.316,0.19,74.634-0.047,111.949c-0.032,5.021,1.512,5.901,6.145,5.892
		C111.649,350.08,180.452,350.126,249.254,350.126z" filter="url(#shadow)" />
	<path fill-rule="evenodd" clip-rule="evenodd" fill="#FFFFFF" d="M300.101,121.731c7.521-2.849,15.136-5.477,22.533-8.614
		c6.282-2.664,11.739-6.492,16.447-11.72c5.55-6.163,12.257-10.523,21.446-9.345c6.179,0.793,7.15,1.674,5.17,7.478
		c-0.132,0.387-0.174,0.805-0.258,1.208c0.607-0.123,1.273-0.125,1.812-0.386c5.981-2.887,11.907-5.891,17.926-8.698
		c2.854-1.331,5.916-2.206,8.806-3.466c4.144-1.807,6.888-0.648,8.929,3.363c2,3.928,2.947,7.297-1.423,10.407
		c-4.873,3.465-9.56,7.206-14.18,11.006c-1.024,0.842-1.433,2.43-2.125,3.675c1.563,0.039,3.381,0.618,4.647,0.024
		c5.854-2.746,11.523-5.888,17.341-8.718c1.224-0.595,2.798-0.47,4.209-0.676c0.038,2.578,1.11,6.725-0.049,7.489
		c-10.616,7.007-20.512,15.414-33.401,18.402c-5.136,1.19-9.794,0.855-13.198-3.291c-3.163-3.851-1.949-8.116,0.272-12.138
		c0.366-0.662,0.454-1.479,0.671-2.223c-0.833,0.341-1.79,0.52-2.478,1.05c-3.951,3.046-7.813,6.209-11.759,9.264
		c-1.835,1.42-3.675,2.903-5.712,3.98c-7.053,3.728-12.714,1.777-15.581-5.667c-1.232-3.2-2.237-3.547-5.141-1.77
		c-9.286,5.683-19.261,9.643-30.14,11.162c-9.056,1.262-19.993-1.653-23.541-11.62c-0.298-0.836-2.529-1.755-3.498-1.455
		c-6.609,2.041-13.076,3.842-19.812,0.262c-0.875-0.465-2.691,0.49-3.917,1.099c-6.244,3.1-12.355,6.479-18.672,9.418
		c-6.613,3.078-12.828,1.571-17.972-3.219c-5.341-4.975-7.165-11.064-5.5-18.556c2.611-11.752,23.18-25.826,33.703-21.62
		c5.019,2.007,6.365,3.811,2.764,8.096c-2.964,3.526-6.618,6.514-10.184,9.477c-2.548,2.117-5.885,3.411-8.07,5.802
		c-1.662,1.819-2.066,4.788-3.03,7.244c2.186-0.117,4.613,0.337,6.507-0.466c4.265-1.811,8.316-4.156,12.338-6.483
		c1.022-0.592,1.874-1.82,2.355-2.947c4.565-10.684,13.211-16.839,23.613-20.654c2.139-0.784,6.176,0.028,7.501,1.627
		c1.287,1.553,1.109,5.55-0.013,7.61c-2.273,4.173-5.638,7.748-8.503,11.607c-0.433,0.583-0.595,1.365-0.883,2.055
		c0.646,0.117,1.324,0.426,1.932,0.32c5.064-0.875,9.75-2.04,13.553-6.271c12.896-14.348,29.154-20.462,48.303-17.682
		c7.42,1.078,9.535,7.167,3.992,12.11c-4.825,4.305-10.854,7.509-16.789,10.249c-5.214,2.407-11.063,3.413-16.568,5.23
		c-1.336,0.441-2.421,1.645-3.62,2.497c1.244,0.938,2.365,2.225,3.767,2.721c1.513,0.534,3.287,0.33,4.946,0.447
		C299.746,120.862,299.924,121.297,300.101,121.731z M357.437,95.359c-9.089,0.047-20.118,9.541-20.891,18.065
		c-0.074,0.813-0.854,1.789-1.582,2.28c-4.149,2.802-2.386,6.24-0.693,9.191c1.872,3.268,5.071,4.432,8.548,2.369
		c3.123-1.853,5.969-4.167,8.976-6.222c7.94-5.428,15.851-10.904,23.919-16.136c1.038-0.674,2.938-0.019,4.439,0.021
		c-0.676,1.161-1.196,2.455-2.054,3.46c-3.436,4.029-7.44,7.657-10.356,12.021c-3.492,5.225-0.881,9.656,5.349,9.658
		c2.754,0.001,5.854-0.248,8.2-1.503c8.619-4.61,16.994-9.675,25.431-14.622c0.593-0.348,0.929-1.132,1.384-1.714
		c-0.74,0.125-1.556,0.09-2.209,0.399c-5.237,2.478-10.295,5.447-15.729,7.345c-2.344,0.819-5.446-0.535-8.204-0.902
		c0.733-2.646,1.319-5.348,2.277-7.91c0.369-0.987,1.51-1.759,2.431-2.455c3.979-3.003,7.947-6.027,12.037-8.873
		c2.584-1.798,2.71-3.76,1.376-6.393c-1.389-2.739-3.211-2.891-5.73-1.74c-2.408,1.101-5.087,1.676-7.374,2.966
		c-12.109,6.83-24.074,13.922-36.254,20.623c-1.779,0.979-4.442,0.354-6.697,0.471c0.741-1.879,0.964-4.364,2.32-5.523
		c4.029-3.446,8.58-6.274,12.764-9.553c1.438-1.127,2.394-2.871,3.569-4.333C360.935,96.021,359.186,95.69,357.437,95.359z
		 M258.225,119.485c2.703-0.881,6.634-2.061,10.474-3.489c0.891-0.331,1.47-1.502,2.192-2.288c-0.988-0.057-1.979-0.185-2.964-0.159
		c-3.729,0.097-7.513,0.684-11.172,0.234c-3.097-0.38-4.186-2.079-1.121-4.771c2.603-2.288,4.884-5.018,6.956-7.812
		c2.151-2.904,6.487-5.807,3.713-9.576c-0.792-1.077-7.287,0.665-10.02,2.674c-6.243,4.589-13.637,8.383-14.979,17.589
		c-0.446,3.06-19.955,11.476-23.41,10.907c-3.398-0.559-5.356-3.135-4.508-5.98c0.966-3.242,2.979-6.575,5.459-8.878
		c4.849-4.502,10.384-8.26,15.518-12.469c0.895-0.733,1.211-2.173,1.795-3.288c-1.193-0.444-2.36-1.18-3.583-1.287
		c-10.438-0.902-25.289,9.857-27.491,20.129c-1.189,5.546,0.23,10.578,4.642,14.479c4.25,3.757,9.112,4.909,14.328,2.574
		c5.597-2.504,11.295-4.983,16.41-8.303c4.087-2.652,7.484-4.42,11.955-1.128C253.467,119.414,255.305,119.109,258.225,119.485z
		 M316.888,89.638c-13.872,0.646-25.632,4.958-35.578,13.795c-2.466,2.192-4.878,4.56-3.583,8.549
		c0.275,0.848-0.245,2.589-0.947,3.015c-4.325,2.627-2.262,5.837-0.644,8.543c2.776,4.64,7.347,6.485,12.641,6.609
		c14.622,0.343,26.96-5.973,38.876-13.448c0.686-0.43,1-1.451,1.488-2.198c-0.897,0.188-1.84,0.255-2.685,0.581
		c-7.091,2.725-13.994,6.168-21.303,8.002c-4.398,1.104-9.573,0.315-14.084-0.844c-1.754-0.452-3.198-4.131-3.79-6.581
		c-0.797-3.293,2.327-3.272,4.499-3.929c6.961-2.106,14.083-3.843,20.78-6.603c4.646-1.915,9.06-4.853,12.893-8.134
		c3.129-2.678,2.168-5.284-1.828-6.409C321.268,89.922,318.736,89.88,316.888,89.638z" filter="url(#shadow)" />
	<path fill-rule="evenodd" clip-rule="evenodd" fill="#FFFFFF" d="M164.544,86.162c6.166,0.002,12.333-0.095,18.496,0.049
		c2.469,0.058,4.978,0.436,7.378,1.034c3.765,0.938,4.234,3.219,2.179,6.35c-3.208,4.887-8.03,6.434-13.51,7.298
		c-13.581,2.143-27.255,4.004-40.605,7.182c-7.606,1.812-14.685,5.909-21.914,9.17c-1.188,0.536-1.926,2.071-2.873,3.145
		c1.31,0.571,2.619,1.634,3.929,1.635c9.147,0.004,18.32,0.171,27.437-0.438c16.925-1.132,32.797-6.437,48.267-13.136
		c4.484-1.942,5.228-1.296,5.407,3.785c0.241,6.798-3.165,11.936-8.961,14.369c-10.181,4.275-20.574,8.426-31.269,11.013
		c-17.277,4.18-34.97,4.478-52.461,0.961c-4.119-0.829-8.413-3.233-11.517-6.109c-5.142-4.766-5.178-11.815,0.234-16.27
		c5.688-4.681,12.153-8.734,18.862-11.774c7.043-3.19,14.78-4.851,22.212-7.183c0.616-0.193,1.226-0.405,1.839-0.608
		c-0.616-0.361-1.191-0.913-1.853-1.056c-5.822-1.248-11.809-1.947-17.459-3.723c-10.593-3.329-12.701-11.628-5.207-19.905
		c8.053-8.895,18.938-12.879,30.122-15.58c20.493-4.947,41.318-6.645,62.356-4.188c4.108,0.479,7.845,1.326,8.151,6.803
		c0.447,8-0.513,9.846-6.709,11.742c-7.281,2.228-14.503,4.649-21.748,6.996c-0.946,0.307-1.893,0.981-2.809,0.931
		c-1.831-0.102-3.639-0.587-5.457-0.914c0.681-1.681,1.28-3.4,2.075-5.024c0.456-0.933,1.231-1.708,1.863-2.553
		c-0.981-0.106-1.976-0.374-2.942-0.295c-13.927,1.143-27.726,2.906-40.643,8.748c-0.906,0.409-1.89,0.748-2.651,1.355
		c-1.243,0.991-2.331,2.176-3.484,3.279c1.45,0.616,2.86,1.626,4.357,1.777c5.286,0.537,10.598,0.891,15.909,1.1
		C155.874,86.296,160.211,86.161,164.544,86.162z M166.819,89.821c-4.332,0-8.68,0.236-12.994-0.053
		c-7.285-0.487-14.58-1.092-21.798-2.145c-1.731-0.253-3.988-2.215-4.49-3.856c-0.384-1.252,1.232-3.781,2.641-4.78
		c2.81-1.995,5.971-3.632,9.194-4.884c15.718-6.105,32.204-7.701,48.892-7.921c1.947-0.026,3.897,0.216,5.846,0.334
		c-1.522,1.118-3.036,2.247-4.57,3.348c-0.539,0.386-1.187,0.635-1.68,1.066c-0.594,0.52-1.078,1.169-1.609,1.763
		c0.776,0.002,1.608,0.192,2.318-0.023c5.703-1.726,11.307-3.85,17.095-5.195c3.744-0.87,4.602-2.591,4.628-6.197
		c0.029-3.894-1.466-5.475-5.083-5.742c-1.651-0.121-3.284-0.643-4.93-0.669c-16.145-0.263-32.284-0.296-48.207,2.983
		c-11.773,2.425-23.305,5.59-32.94,13.231c-3.756,2.978-7.838,6.488-6.545,11.933c1.289,5.431,6.747,6.279,11.154,6.953
		c9.667,1.479,19.461,2.119,29.187,3.235c1.36,0.156,2.634,1.066,3.947,1.627c-1.223,0.771-2.353,1.93-3.685,2.25
		c-7.085,1.703-14.289,2.943-21.325,4.819c-11.739,3.13-23.338,6.751-32.896,14.766c-6.616,5.547-6.071,12.127,1.397,16.521
		c1.663,0.978,3.655,1.554,5.57,1.924c16.361,3.159,32.772,2.82,49.09-0.08c11.958-2.125,23.763-5.139,34.016-12.042
		c2.451-1.65,4.117-4.581,5.837-7.129c0.514-0.762-0.012-2.225-0.062-3.368c-1.049,0.099-2.217-0.07-3.131,0.335
		c-15.62,6.929-31.91,11.456-48.964,12.397c-9.577,0.529-19.265,0.195-28.829-0.62c-5.287-0.451-6.383-4.705-2.055-7.799
		c5.203-3.721,10.922-7.04,16.883-9.316c14.501-5.537,29.795-7.715,45.17-9.445c4.512-0.508,8.94-2.106,13.273-3.595
		c1.032-0.355,1.525-2.28,2.267-3.482c-1.206-0.378-2.407-1.062-3.619-1.082C179.483,89.773,173.151,89.832,166.819,89.821z" filter="url(#shadow)" />
	<path fill-rule="evenodd" clip-rule="evenodd" fill="#FFFFFF" d="M192.715,301.688c0.451-12.474,10.058-26.562,21.082-30.603
		c0.632-0.231,1.374-1.698,1.199-2.36c-1.719-6.488,1.711-12.34,8.34-13.937c3.973-0.957,6.963,1.288,7.12,5.346
		c0.169,4.395-3.217,10.238-7.49,11.407c-2.757,0.754-2.347,1.701-2.387,3.946c-0.05,2.809-0.987,6.003-2.593,8.293
		c-2.938,4.191-6.783,7.734-9.958,11.777c-1.035,1.318-1.162,3.348-1.704,5.052c1.814,0.453,4.353,1.897,5.322,1.19
		c4.736-3.454,10.418-6.674,13.25-11.465c7.188-12.153,17.598-19.213,30.654-22.989c4.17-1.205,7.321,1.289,8.261,5.492
		c0.191,0.858,0.605,1.796,1.209,2.411c4.577,4.667,5.085,7.327,2.354,13.276c-0.483,1.055-1.097,2.058-1.489,3.144
		c-0.735,2.037-1.352,4.116-2.018,6.177c1.765-1.189,3.677-2.217,5.248-3.623c1.183-1.059,2.244-2.48,2.823-3.951
		c7.835-19.904,20.635-36.334,35.843-51.014c3.188-3.077,6.989-7.609,11.949-3.514c4.952,4.091,0.776,8.487-1.577,11.82
		c-7.858,11.134-16.231,21.904-24.37,32.843c-0.727,0.978-1.178,2.16-1.758,3.248c1.104-0.476,2.321-0.787,3.293-1.456
		c3.552-2.443,6.86-5.281,10.564-7.454c4.438-2.604,7.391-1.762,9.842,2.845c1.685,3.168,2.28,2.218,3.495-0.147
		c1.439-2.804,2.637-6.04,4.873-8.048c2.919-2.619,6.762-4.204,10.193-6.256c1.978-1.183,4.072-2.228,5.858-3.653
		c2.662-2.125,4.805-5.112,7.741-6.601c1.728-0.875,4.952-0.155,6.741,1.014c0.918,0.6,0.107,3.763,0.188,5.762
		c0.042,1.062,0.27,3.026,0.496,3.038c5.279,0.28,2.453,3.147,1.689,5.216c-2.721,7.365-6.339,13.48-15.621,13.728
		c-3.92,0.104-12.052,17.999-9.88,21.188c0.479,0.704,2.917,1.011,3.627,0.452c2.554-2.013,4.809-4.422,7.077-6.775
		c5.662-5.874,11.425-11.662,16.836-17.761c2.781-3.134,5.09-6.741,7.258-10.349c1.838-3.059,4.18-4.655,7.734-4.229
		c3.583,0.43,4.352,3.136,4.71,6.087c0.658,5.418,2.197,10.938,1.637,16.232c-0.46,4.347-3.405,8.441-5.309,12.62
		c-0.521,1.145-1.255,2.192-1.891,3.284c1.251-0.6,2.65-1.008,3.726-1.836c2.502-1.929,4.813-4.103,7.273-6.09
		c1.364-1.103,2.87-2.029,4.313-3.034c0.582,2.384,2.081,4.978,1.591,7.114c-2.484,10.855-26.039,21.942-35.97,17.049
		c-2.469-1.216-4.832-3.068-6.599-5.171c-1.918-2.282-2.919-1.957-5.099-0.305c-4.195,3.181-8.509,6.538-13.312,8.509
		c-7.443,3.053-12.559-0.918-12.977-9.081c-0.055-1.084-0.314-2.157-0.48-3.235c-0.995,0.513-2.04,0.949-2.979,1.553
		c-4.041,2.6-7.819,5.74-12.128,7.758c-5.895,2.762-11.014-1.455-10.359-7.999c0.033-0.33,0.104-0.657,0.177-0.982
		c0.566-2.523,1.137-5.048,1.706-7.571c-1.959,1.922-4.009,3.761-5.852,5.788c-2.014,2.213-3.651,4.796-5.811,6.841
		c-1.312,1.243-3.805,2.867-4.876,2.376c-1.806-0.827-3.521-2.994-4.18-4.964c-1.743-5.214-1.232-4.865-5.607-2.028
		c-10.86,7.044-16.665,18.273-24.333,27.999c-2.829,3.587-6.551,6.616-10.323,9.243c-1.479,1.029-4.966,1.123-6.17,0.074
		c-1.31-1.142-2.043-4.619-1.254-6.184c2.445-4.847,5.419-9.515,8.786-13.781c2.971-3.765,6.744-6.896,10.164-10.307
		c0.943-0.939,2.116-1.745,2.769-2.855c0.696-1.185,0.902-2.658,1.321-4.005c-1.11,0.536-2.261,1.004-3.321,1.626
		c-1.571,0.924-3.02,2.067-4.622,2.927c-6.269,3.356-9.975,2.446-13.008-3.836c-1.586-3.285-2.325-2.798-4.621-0.65
		c-3.483,3.258-7.193,6.536-11.372,8.729c-6.711,3.522-11.891,1.245-14.705-5.807C193.958,307.526,193.475,304.553,192.715,301.688z
		 M273.125,303.11c0.995,2.615,1.851,4.861,2.706,7.108c1.664-1.398,3.443-2.682,4.973-4.215
		c6.682-6.701,13.253-13.512,19.981-20.165c0.682-0.673,2.146-0.554,3.248-0.802c-0.106,1.167,0.141,2.537-0.389,3.461
		c-1.4,2.444-3.409,4.558-4.678,7.056c-1.937,3.809-4.087,7.691-4.987,11.797c-1.079,4.919,2.054,7.035,6.433,4.65
		c3.479-1.895,6.646-4.374,9.89-6.678c0.626-0.444,0.974-1.28,1.449-1.936c-0.868,0.098-1.744,0.321-2.603,0.268
		c-2.263-0.142-4.519-0.404-6.776-0.619c0.234-2.324-0.199-5.021,0.843-6.896c2.246-4.045,5.222-7.688,7.956-11.456
		c1.544-2.126,3.164-4.661,0.478-6.446c-1.329-0.882-4.609-0.445-6.001,0.66c-7.544,5.989-14.752,12.4-22.128,18.604
		c-1.622,1.363-3.457,2.473-5.193,3.7c0.084-2.797,0.072-5.603,0.322-8.385c0.062-0.687,0.964-1.311,1.506-1.938
		c2.61-3.021,5.409-5.897,7.812-9.073c9.622-12.717,19.174-25.487,28.584-38.36c0.884-1.207,0.601-3.268,0.858-4.933
		c-1.733,0.489-3.504,0.879-5.184,1.513c-0.729,0.274-1.285,1.033-1.892,1.602c-12.233,11.469-22.759,24.383-30.236,39.365
		C276.694,287.812,275.392,295.682,273.125,303.11z M227.165,302.263c0.818,1.536,1.696,5.306,4.042,6.861
		c1.616,1.071,5.807-0.187,7.896-1.709c4.529-3.3,8.428-7.459,12.632-11.213c0.793-0.709,1.807-1.17,2.718-1.745
		c0.348,1.177,1.351,2.706,0.938,3.475c-3.781,7.057-5.501,15.067-12.263,20.736c-5.753,4.823-10.144,11.327-14.83,17.329
		c-1.04,1.33-0.79,3.669-1.133,5.544c1.711-0.672,3.802-0.935,5.058-2.099c3.159-2.924,6.113-6.115,8.838-9.453
		c5.623-6.886,8.767-15.762,16.726-20.786c0.382-0.241,0.596-0.75,0.888-1.135c-0.27-0.115-0.531-0.256-0.811-0.341
		c-3.439-1.055-1.967-3.044-1.013-5.02c2.095-4.335,4.132-8.695,6.174-13.054c0.774-1.652,1.991-3.296,2.104-5.003
		c0.117-1.771-0.856-3.615-1.353-5.428c-1.104,0.821-2.413,1.471-3.279,2.493c-3.658,4.317-6.871,9.059-10.857,13.033
		c-3.099,3.09-6.901,5.657-10.796,7.677c-1.662,0.861-5.384,0.528-6.318-0.687c-1.19-1.548-1.437-5.095-0.427-6.788
		c1.962-3.289,4.7-6.42,7.81-8.65c5.523-3.96,11.621-7.11,17.339-10.813c1.144-0.74,1.668-2.434,2.478-3.688
		c-1.388-0.31-2.832-1.038-4.156-0.863C241.835,272.745,228.2,287.105,227.165,302.263z M319.819,307.633
		c-0.105,6.882,2.527,10.011,6.795,8.207c4.923-2.08,9.227-5.638,13.745-8.635c0.423-0.28,0.461-1.139,0.678-1.729
		c-0.73-0.069-1.526-0.354-2.174-0.156c-0.932,0.283-1.724,0.991-2.631,1.395c-5.421,2.407-9.298,0.274-8.027-5.354
		c1.532-6.785,4.867-13.171,7.514-19.691c1.106-2.726,3.053-3.749,6.232-3.725c5.935,0.045,10.408-4.266,11.149-10.07
		c0.079-0.619-0.756-1.954-1.119-1.938c-5.021,0.23-4.286-1.719-2.158-4.814c0.961-1.398,1.075-3.379,1.573-5.096
		c-2.051,0.775-4.196,1.373-6.109,2.402c-0.922,0.497-1.646,1.717-2.045,2.768c-1.412,3.724-4.217,5.335-7.967,5.372
		c-5.274,0.054-7.967,3.404-10.283,7.481c-1.325,2.333-0.903,3.038,1.846,3.145c6.505,0.254,6.51,0.389,2.888,6.103
		c-0.71,1.12-1.354,2.383-2.339,3.211C320.288,292.478,322.51,301.545,319.819,307.633z M377.264,282.276
		c-0.52-2.717-1.128-6.648-2.083-10.493c-0.36-1.454-1.524-2.71-2.321-4.056c-1.342,1.252-3.734,2.428-3.831,3.769
		c-0.322,4.475-0.19,9.062,0.446,13.509c1.04,7.277,0.003,13.492-6.385,18.115c-2.461,1.78-4.173,2.897-6.079-0.7
		c-0.73-1.38-1.748-4.93-4.644-2.136c-2.239,2.162-5.635,4.172-2.255,8.154c4.346,5.122,12.776,7.452,18.516,4.239
		c4.164-2.332,7.846-5.533,11.691-8.414c0.591-0.442,0.907-1.254,1.351-1.895c-0.856,0.271-1.884,0.328-2.541,0.85
		c-3.905,3.096-8.129,5.201-13.27,4.525c-1.275-0.167-2.494-0.762-3.739-1.16c0.898-0.875,1.704-1.876,2.709-2.602
		C371.858,298.909,377.047,292.761,377.264,282.276z M196.438,302.971c0.815,2.129,1.523,5.867,3.571,8.604
		c1.171,1.563,5.385,2.812,6.742,1.926c5.335-3.484,10.089-7.861,15.024-11.947c0.325-0.27,0.362-0.887,0.533-1.342
		c-0.55,0.092-1.172,0.049-1.637,0.299c-3.038,1.635-5.888,3.773-9.098,4.889c-3.413,1.185-6.606-0.011-8.417-3.454
		c-1.708-3.249-0.805-5.794,1.798-8.428c3.831-3.875,7.346-8.104,10.616-12.467c1.005-1.341,0.77-3.61,1.102-5.455
		c-1.978,0.217-4.418-0.236-5.859,0.759C202.094,282.372,197.662,290.962,196.438,302.971z M326.347,281.749
		c-0.357-0.303-0.761-0.884-1.018-0.825c-3.108,0.716-7.184,0.564-9.08,2.513c-3.872,3.982-6.62,9.072-9.705,13.789
		c-0.631,0.963-0.708,2.289-1.04,3.449c1.065-0.243,2.469-0.135,3.144-0.783c5.715-5.496,11.302-11.124,16.906-16.735
		C325.886,282.825,326.036,282.313,326.347,281.749z M254.945,282.24c-0.985,0.146-1.774,0.056-2.32,0.378
		c-4.268,2.516-8.604,4.94-12.667,7.757c-1.824,1.265-3.284,3.227-4.489,5.138c-0.585,0.928-0.206,2.465-0.263,3.727
		c1.073-0.077,2.242,0.097,3.203-0.271c7.592-2.912,11.282-9.874,16.072-15.692C254.58,283.154,254.617,282.981,254.945,282.24z
		 M366.683,290.567c-0.546-1.978-1-3.622-1.454-5.267c-1.241,1.005-2.538,1.948-3.706,3.031c-1.207,1.117-2.147,2.557-3.449,3.527
		c-4.38,3.267-0.875,5.312,1.223,7.201c2.884,2.599,4.172-0.739,5.218-2.255C365.741,295.024,366.027,292.595,366.683,290.567z
		 M228.685,260.919c-2.093-1.602-2.937-2.76-3.933-2.91c-2.9-0.438-7.285,4.113-6.799,7.244c0.195,1.258,1.759,2.304,2.7,3.447
		C223.106,266.322,225.56,263.946,228.685,260.919z" filter="url(#shadow)" />
	<path fill-rule="evenodd" clip-rule="evenodd" fill="#FFFFFF" d="M173.295,229.715c4.621,0.869,11.605,1.578,18.204,3.568
		c9.335,2.815,12.75,9.146,11.432,18.737c-1.684,12.255-8.227,20.563-20.191,23.89c-9.399,2.613-19.004,4.486-28.501,6.756
		c-1.321,0.315-2.548,1.022-3.819,1.549c1.286,0.644,2.53,1.393,3.863,1.914c9.727,3.805,19.521,7.438,29.189,11.383
		c6.082,2.481,8.523,7.427,8.52,13.894c-0.004,7.609-2.447,9.421-9.4,6.465c-9.922-4.218-19.793-8.554-29.706-12.794
		c-4.575-1.957-9.145-3.948-13.829-5.609c-1.198-0.425-3.634-0.143-4.112,0.651c-2.623,4.359-4.569,9.127-7.243,13.448
		c-1.582,2.557-3.807,4.945-6.275,6.63c-1.269,0.866-4.419,0.757-5.427-0.23c-1.206-1.182-1.935-4.151-1.292-5.685
		c2.303-5.494,5.269-10.711,7.995-16.027c1.205-2.347,2.755-4.343-0.396-6.872c-1.168-0.938-1.179-4.428-0.513-6.333
		c1.958-5.592,6.439-8.437,12.044-10.156c2.404-0.737,4.877-2.613,6.376-4.662c3.23-4.413,5.864-9.265,8.701-13.961
		c0.408-0.676,0.59-1.487,0.876-2.236c-0.898-0.092-1.912-0.499-2.672-0.219c-2.453,0.904-7.586-0.874-5.399,5.143
		c0.211,0.58-1.282,2.51-2.152,2.636c-6.399,0.923-12.828,1.691-19.272,2.209c-4.159,0.333-5.767-2.227-5.124-6.035
		c1.414-8.372,4.473-16.177,13.116-19.136c9.19-3.146,18.753-5.291,28.261-7.378C161.216,230.229,166.127,230.327,173.295,229.715z
		 M182.613,246.002c1.665,0.186,4.28,0.037,6.552,0.85c2.327,0.832,5.864,2.398,6.079,4.014c0.298,2.235-1.39,5.712-3.336,7.079
		c-4.97,3.488-10.306,6.751-15.952,8.914c-8.171,3.134-16.736,5.246-25.154,7.724c-1.364,0.401-2.834,0.441-4.256,0.648
		c0.545-1.325,0.963-2.722,1.655-3.965c3.235-5.807,6.646-11.518,9.746-17.395c0.653-1.236,0.258-3.026,0.347-4.561
		c-0.979,1.007-2.177,1.877-2.902,3.043c-4.39,7.051-8.711,14.146-12.968,21.279c-1.505,2.521-3.342,3.683-6.386,4.575
		c-3.844,1.127-7.427,3.971-10.445,6.798c-1.954,1.83-1.77,4.834,1.675,5.747c3.328,0.883,2.066,2.454,1.064,4.298
		c-3.254,5.983-6.508,11.97-9.564,18.056c-0.57,1.133-0.226,2.726-0.303,4.106c1.306-0.582,2.673-1.061,3.893-1.787
		c0.673-0.4,1.236-1.144,1.612-1.857c2.757-5.24,5.61-10.439,8.116-15.799c1.642-3.514,3.488-3.882,6.995-2.326
		c14.561,6.457,29.257,12.609,43.93,18.812c1.453,0.613,3.084,0.807,4.633,1.194c0.274-1.883,0.787-3.768,0.78-5.651
		c-0.023-6.909-5.397-9.079-10.511-11.065c-11.431-4.439-22.99-8.552-34.454-12.908c-1.216-0.462-2.151-1.662-3.215-2.521
		c1.164-0.718,2.245-1.816,3.506-2.092c8.257-1.802,16.59-3.265,24.826-5.151c8.528-1.953,17.397-3.157,24.119-9.728
		c5.724-5.593,9.043-17.011,6.297-22.823c-2.822-5.973-8.519-7.7-14.304-8.644c-17.424-2.839-34.401-0.428-51.052,5.001
		c-7.297,2.38-12.502,6.862-14.138,14.618c-0.386,1.828,0.127,3.845,0.227,5.775c3.46-0.808,7.031-1.321,10.336-2.546
		c1.671-0.619,2.637-3.109,4.31-3.763C149.605,248.007,165.739,247.289,182.613,246.002z M180.728,249.787
		c-0.005-0.066-0.011-0.133-0.017-0.2c-5.292,0.413-10.589,0.784-15.874,1.277c-0.891,0.083-2.177,0.457-2.525,1.104
		c-2.74,5.079-5.333,10.239-7.821,15.446c-0.161,0.337,1.116,1.916,1.402,1.832c10.59-3.133,21.729-4.905,30.971-11.527
		c2.028-1.453,3.389-3.838,5.057-5.794c-2.402-0.713-4.777-1.545-7.217-2.088C183.438,249.556,182.057,249.787,180.728,249.787z" filter="url(#shadow)" />
	<path fill-rule="evenodd" clip-rule="evenodd" fill="#FFFFFF" d="M317.108,94.683c-1.671,2.379-2.297,3.761-3.337,4.672
		c-7.041,6.166-15.615,9.096-24.503,11.289c-0.534,0.132-1.185-0.208-1.781-0.329c0.22-0.612,0.332-1.297,0.679-1.827
		c5.539-8.48,13.375-13.582,23.295-15.324C312.921,92.907,314.614,93.97,317.108,94.683z M310.774,97.616
		c-1.44-0.226-1.939-0.463-2.312-0.334c-1.566,0.543-3.239,0.973-4.605,1.858c-2.212,1.433-4.215,3.19-6.305,4.81
		c2.422-0.876,4.907-1.611,7.243-2.673C306.57,100.469,308.154,99.246,310.774,97.616z" filter="url(#shadow)" />
</g>
</svg>
