<?xml version="1.0" encoding="iso-8859-1"?>
<!-- Generator: Adobe Illustrator 17.1.0, SVG Export Plug-In . SVG Version: 6.00 Build 0)  -->
<!DOCTYPE svg PUBLIC "-//W3C//DTD SVG 1.1//EN" "http://www.w3.org/Graphics/SVG/1.1/DTD/svg11.dtd">
<svg xmlns="http://www.w3.org/2000/svg" xmlns:xlink="http://www.w3.org/1999/xlink" version="1.1" id="Capa_1" x="0px" y="0px" viewBox="0 0 206.104 206.104" style="enable-background:new 0 0 206.104 206.104;" xml:space="preserve" width="512px" height="512px">
<path d="M110.155,180.667c-3.091,0-6.229-0.555-9.28-1.723l-0.83-0.298c-0.443,0.041-0.906-0.021-1.351-0.193  c-0.392-0.153-0.733-0.379-1.015-0.655l-70.87-25.446C10.75,146.207,0,130.582,0,113.45v-13.34c0-0.005,0-0.011,0-0.016V28.438  c0-1.657,1.343-3,3-3h45.69c1.657,0,3,1.343,3,3v46.704c0,13.001,6.985,24.84,18.298,31.131V28.438c0-1.657,1.343-3,3-3h45.69  c1.657,0,3,1.343,3,3v46.704c0,13.325,7.34,25.431,19.155,31.592l47.78,23.213c0.022,0.011,0.045,0.021,0.067,0.032l3.395,1.649  c12.199,6.359,17.351,21.101,11.805,33.597c-5.607,12.633-20.111,18.658-33.017,13.72l-1.253-0.45  c-0.025-0.009-0.05-0.018-0.074-0.026l-35.817-12.86C129.358,175.024,120.007,180.667,110.155,180.667z M103.797,173.618  c9.489,3.169,19.826-1.131,24.245-10.049l-17.836-6.404L103.797,173.618z M174.51,173.846c9.562,2.8,19.798-1.845,23.886-11.055  c4.265-9.609,0.303-20.944-9.019-25.805l-0.429-0.208L174.51,173.846z M133.07,159l35.779,12.847l14.685-37.699l-45.399-22.056  c-13.881-7.237-22.457-21.381-22.457-36.95V31.438h-39.69v65.949c5.238,0.879,16.097,4.453,24.385,18.892  c8.305,14.467,6.582,27.225,5.146,32.83l3.907,1.402c0.038,0.013,0.075,0.026,0.112,0.04l23.469,8.427  C133.028,158.984,133.049,158.992,133.07,159z M35.531,149.108l62.617,22.482l6.409-16.453l-7.758-2.786  c-7.077-2.708-13.123-7.257-17.672-12.965c-5.774-7.244-9.137-16.354-9.137-25.937v-0.463l-1.842-0.896  c-13.88-7.237-22.456-21.381-22.456-36.95V31.438H6v65.949c5.238,0.879,16.096,4.453,24.385,18.892  C38.691,130.746,36.967,143.505,35.531,149.108z M6,103.488v9.962c0,14.663,9.201,28.035,22.896,33.276l0.967,0.348  c1.153-4.848,2.362-15.54-4.681-27.81C18.576,107.759,10.314,104.443,6,103.488z M82.3,133.62  c4.012,5.831,9.737,10.485,16.584,13.105l0.968,0.348c1.153-4.848,2.361-15.54-4.682-27.809  c-6.621-11.531-14.857-14.837-19.182-15.783v9.969C75.988,120.781,78.288,127.789,82.3,133.62z" fill="#FFFFFF"/>
<g>
</g>
<g>
</g>
<g>
</g>
<g>
</g>
<g>
</g>
<g>
</g>
<g>
</g>
<g>
</g>
<g>
</g>
<g>
</g>
<g>
</g>
<g>
</g>
<g>
</g>
<g>
</g>
<g>
</g>
</svg>
