<?xml version="1.0"?>
<svg xmlns="http://www.w3.org/2000/svg" xmlns:xlink="http://www.w3.org/1999/xlink" version="1.1" id="Capa_1" x="0px" y="0px" viewBox="0 0 222.512 222.512" style="enable-background:new 0 0 222.512 222.512;" xml:space="preserve" width="512px" height="512px" class=""><g transform="matrix(-1 0 0 1 222.512 0)"><path d="M93.805,165.634c-16.288,0.001-42.025-9.408-44.867-10.467L3.007,155.28c-0.002,0-0.005,0-0.007,0  c-0.838,0-1.637-0.351-2.205-0.966c-0.57-0.618-0.854-1.446-0.785-2.283l3.993-47.883c1.654-14.322,9.683-24.253,21.487-26.659  l47.485-9.685c-0.401-0.916-0.617-1.93-0.602-2.992l0.011-0.783c0.026-1.937,0.806-3.748,2.195-5.099  c1.389-1.351,3.211-2.078,5.157-2.052l5.445,0.078c3.995,0.057,7.201,3.354,7.146,7.349l-0.011,0.783l0,0  c-0.015,1.067-0.257,2.096-0.705,3.029l46.975,10.019c16.636,3.583,24.68,17.404,26.669,29.165l4.66,22.878  c20.07,3.523,36.363,9.168,43.684,11.953c8.535,2.787,8.782,5.488,8.891,6.684c0.472,5.154-7.413,5.876-11.203,6.223  c-24.117,2.211-56.562-6.418-62.269-8.007c-10.447,2.861-19.721,6.879-27.731,10.349c-9.254,4.01-17.247,7.472-24.308,8.118  C95.974,165.591,94.91,165.634,93.805,165.634z M57.505,151.796c9.843,3.264,28.244,8.693,38.929,7.728  c6.104-0.559,13.688-3.845,22.47-7.648c8.416-3.646,18.183-7.878,29.313-10.848c0.027-0.008,0.054-0.015,0.081-0.021  c5.788-1.54,11.944-2.739,18.469-3.336c2.502-0.229,5.108-0.372,7.779-0.432c-6.762-1.372-14.047-2.541-21.61-3.28  c-10.586-0.869-21.272-0.884-31.928-0.044c-28.335,2.955-50.847,11.859-62.02,17.061C58.483,151.25,57.988,151.524,57.505,151.796z   M162.612,144.193c12.722,2.816,32.561,6.292,48.13,4.871c1.265-0.116,2.288-0.249,3.112-0.385  c-0.771-0.304-1.823-0.711-3.133-1.195c-9.067-2.705-26.521-5.385-43.408-3.839C165.726,143.791,164.158,143.974,162.612,144.193z   M82.373,72.283c-0.892,0.002-1.786,0.093-2.66,0.271L26.69,83.368c-9.136,1.862-15.385,9.853-16.716,21.374l-3.712,44.53  l40.531-0.099l0.142-37.486c0-10.602,2.138-23.773,18.807-31.478c0.043-0.02,0.087-0.038,0.131-0.057l13.267-5.384  c1.536-0.621,3.285,0.117,3.908,1.652s-0.117,3.285-1.652,3.908l-13.199,5.355c-13.41,6.227-15.261,16.182-15.261,26.014  l-0.135,35.574c1.137-0.572,2.477-1.225,4.008-1.938c13.294-7.116,33.333-14.637,61.176-17.185l0,0  c0.82-0.075,1.642-0.146,2.462-0.211c0.781-0.081,1.567-0.157,2.357-0.229c11.586-1.062,23.166-0.649,34.051,0.578  c2.243,0.223,4.481,0.482,6.714,0.78l-4.2-20.62c-0.007-0.034-0.014-0.068-0.019-0.103c-0.8-4.771-4.753-20.624-22.019-24.344  L82.373,72.283z M79.633,62.878c-0.44,0-0.733,0.221-0.87,0.354c-0.139,0.135-0.373,0.429-0.379,0.879l-0.011,0.783  c-0.009,0.688,0.543,1.257,1.232,1.267l5.444,0.077c0.45,0.031,0.751-0.218,0.89-0.353s0.372-0.429,0.378-0.879l0.011-0.783  c0.009-0.688-0.543-1.257-1.232-1.267l-5.445-0.078C79.645,62.878,79.639,62.878,79.633,62.878z" data-original="#000000" class="active-path" data-old_color="#000000" fill="#FFFFFF"/></g> </svg>
